<?xml version="1.0" encoding="UTF-8"?>
<svg id="Layer_2" data-name="Layer 2" xmlns="http://www.w3.org/2000/svg" viewBox="0 0 196.75 220.29">
  <g id="frame_3" data-name="frame 3">
    <path id="vgrain-area" d="M118.83,80.45c.17.46,1.88,4.74,4.62,1.64.93-1.05,1.88-2.84,2.1-3.27,1.36-2.62,2.23-5.3,2.67-6.66,1.52-4.7.49-1.5,3.56-16.09,1.51-8.78,4.86,33.81,7.61,15.14,6.82-46.36,5.31-60.72,9.58-66.14,1.27-1.61,2.92-1.43,3.06.73.17,2.55-1.76,8.01-3.29,10.97-4.31,8.32-8.91,3.42-9.23,3.07,2.33.48,3.27-.78,3.7-1.95.87-2.39.02-5.41,1.03-8.27.8-2.28,2.26-2.95,2.99-2.93,2.85.07,2.37,10.81,2.33,11.58,4.38-.6,8.76-1.2,13.13-1.8,3.49,2.66,6.98,5.32,10.47,7.98-1.56.65-3.48,1.31-5.63,1.69-9.38,1.68-15.55-3.22-15.43-3.68.12-.45,6.42,1.78,27.65,10.66-.45,1.83-1.12,4.64-1.94,8.07,0,0-3.17,13.56-5.75,27.19-6.26,33.05-7.31-8.74-7.31,14.55-.33,4.84-.49-8.41-3.64,3.23-.34,1.25-2.08,7.6-4.95,14.41-.23.56-3.12,7.36-3.58,6.67-.27-.4.57-2.84,1.14-7.03.73-5.4.02-6.46.74-8.74.43-1.36,1.2-2.64,4.95-4.9,2.03-1.22,3.69-1.99,4.91-2.48-4.79-1.43-11.69-2.64-16.79.86-7.7,5.28-5.94,17.65-9.48,18.35-2.26.44-6.42-3.88-14.8-26.17-3.22,1.86-4.13,2.39-4.13,2.4,0,0,.79-.39,1.56-1.19.2-.21.4-.48.6-.87,2.75-5.11,3.4-1.16.92-1.13-1.21.02-2.29-20.12-5.41-8.86" fill="#010101" stroke="#4c53a4" stroke-miterlimit="10"/>
    <path id="glow-area" d="M28.01,47.94c.81-.4,8.58-4.07,14.29-.5,1.37.85,1.73,3.02,3.77,3.58,1.96.54,3.12-.73,4.87-.11,1.64.58,2.45,2.33,3.08,3.91,1.44,3.62,2.38,5.95,2.83,8.58,0,0,.26,1.74.32,3.44.86,28.21-8.18,13.56-8.18,13.56-8.49,14.19-17.23,20.05-14.99,23.52,1.49,2.31,7.03,2.36,9.22,0,2.22-2.38.44-8-1.92-11.15-6.63-8.86-23.07-5.26-24.21-5,6.98.07,8.8,1.48,9.22,2.69.86,2.46-3.62,5.13-2.69,8.07.74,2.34,4.44,3.31,6.53,3.46,8.18.58,14.1-9.71,14.52-10.45,12.07,1.56,24.14,3.12,36.22,4.68,11.76-1.73,23.51-3.46,35.27-5.19-4-.97-9.03-2.03-14.9-2.88-25.59-3.71-46.53-.47-46.5,0,.03.45,19.5-.23,86.09-3.84-.04-1.83-.03-4.65-.03-8.08,0,0-.6,9.71,1.32-3.8,7.82-54.97,18.48-16.43,18.48-16.43,2.35-4.66,6.44-14.38,5.38-26.13-.11-1.26-.75-7.67-4.31-14.78-.29-.58-3.89-7.68-5.68-7.13-1.03.32-.3,2.82-1.54,6.92-1.6,5.28-4.34,6.13-3.84,8.46.29,1.38,1.62,2.77,10.76,5.77,4.94,1.62,9.18,2.72,12.3,3.46-14.53-2.12-30.33-3.77-47.27-4.61-27.59-1.36-52.66-.29-74.56,1.92.55-12.39-3.55-21.14-8.46-21.94-4.89-.79-12.04,6.08-11.15,10.79.39,2.07,2.28,3.42,5,5.38,5.11,3.68,7.67,3.04,9.22,5,4.35,5.47-4.67,24.12-11.72,23.53-4.37-.37-8.39-8.16-7.88-15.07.6-8.11,7.24-12.53,8.07-13.07" fill="none" stroke="#4c53a4" stroke-miterlimit="10"/>
    <path id="grain-area" d="M34,47.94c.81-.4,8.58-4.07,14.29-.5,1.94,1.21,3.42,3.12,3.77,3.58,2.11,2.79,2.75,5.53,3.07,6.92,1.12,4.8,5.36,1.66,4.19,16.17-.54,2.81-1.4,7.18-2.55,12.52-1.1,5.15-2.7-7.29-6.26,6.1-12.04,45.2-25.1,2.49-16.53,8.66,2.53,1.82,7.35,2.01,9.22,0,2.22-2.38.44-8-1.92-11.15-6.63-8.86-23.07-5.26-24.21-5,6.98.07,8.8,1.48,9.22,2.69.86,2.46-3.62,5.13-2.69,8.07.74,2.34,4.44,3.31,6.53,3.46,8.18.58,14.1-9.71,14.52-10.45,12.07,1.56,24.14,3.12,36.22,4.68,11.76-1.73,23.51-3.46,35.27-5.19-4-.97-9.03-2.03-14.9-2.88-25.48-3.7-46.54-.58-46.5,0,.03.59,22.09.1,95.33-3.08,3.38-11.88,5.75-1.52,8.46-15.42,2.14-10.96-.02-7.26,1.23-17.19,1.35-.92,11.84-8.26,12.2-20.05.18-5.87-2.23-10.63-4.31-14.78-.29-.58-3.89-7.68-5.68-7.13-1.03.32-.3,2.82-1.54,6.92-1.6,5.28-4.34,6.13-3.84,8.46.29,1.38,1.62,2.77,10.76,5.77,4.94,1.62,9.18,2.72,12.3,3.46-14.53-2.12-30.33-3.77-47.27-4.61-27.59-1.36-52.66-.29-74.56,1.92.55-12.39-3.55-21.14-8.46-21.94-4.89-.79-12.04,6.08-11.15,10.79.39,2.07,2.28,3.42,5,5.38,5.11,3.68,7.67,3.04,9.22,5,1.76,2.21.74,7.98-11.72,23.53" fill="#4c53a4" stroke="#010101" stroke-miterlimit="10"/>
    <rect id="reg" x=".05" y=".05" width="196.65" height="220.19" fill="none" stroke="#010101" stroke-miterlimit="10" stroke-width=".1"/>
  </g>
</svg>