<svg viewBox="-2500 -350 4000 1463" xmlns="http://www.w3.org/2000/svg" aria-hidden="true">

  <defs>
    <!-- White = visible, black = cut away -->
    <mask id="ground-mask">
      <!-- start with nothing visible -->
      <rect x="-2500" y="-350" width="4000" height="1463" fill="black"/>

      <!-- paint the castle ridge in white -->
      <path d="M-2500 463L-2500 460C-2400 458 -2300 456 -2200 454C-2100 452 -2000 450 -1900 448C-1800 446 -1700 444 -1600 442C-1500 440 -1400 438 -1300 436C-1200 434 -1100 432 -1000 430C-900 428 -800 426 -700 424C-600 422 -500 420 -400 418C-300 416 -200 414 -100 412C-50 411 0 407.53 0 407.53C0 407.53 224.814 405.202 228.806 405.202C232.798 405.202 497.468 394.217 514.453 397.21C531.438 400.203 661.268 389.218 669.262 389.218C677.255 389.218 742.17 377.235 745.164 377.235C748.158 377.235 817.075 355.265 817.075 355.265L899.973 338.293L915.949 318.318H928.932L978.869 306.335H997.849V287.358C997.849 287.358 991.862 276.373 997.849 275.375C1003.84 274.377 1011.83 275.375 1011.83 275.375L1024.81 274.932L1024.7 280.696L1032.25 278.701L1033.8 265.831L1039.13 260.51L1044.45 265.831L1045.11 209.242L1050.44 195.707L1055.76 176.619L1062.42 207.247L1063.97 210.573L1067.52 210.129L1069.74 203.468L1077.07 210.794L1082.39 201.472L1090.61 214.12L1095.71 214.785V207.902L1099.48 206.35L1100.58 162.631L1097.48 160.414L1098.81 140.217L1099.92 135.118L1102.58 141.558L1107.9 142.444L1109.01 131.57L1119.44 84.0819L1129.21 135.783C1129.21 135.783 1131.21 138.665 1131.87 139.33C1132.54 139.995 1134.09 140.217 1134.09 140.217L1136.75 102.495L1148.29 127.126L1149.85 115.364L1161.17 137.113L1163.16 138L1164.94 74.3162C1164.94 74.3162 1163.83 73.8728 1163.83 72.5424C1163.83 71.2121 1163.6 64.5505 1163.6 64.5505C1163.6 64.5505 1164.27 62.555 1164.27 61.4464C1164.27 60.3378 1175.81 11.741 1175.81 11.741L1189.79 64.5505L1192.68 42.3584L1198.9 67.8763L1202.66 -0.0302734L1216.65 68.9849L1222.63 47.4579L1227.29 74.9713L1227.51 96.0547L1226.4 99.824L1227.29 138.655L1230.17 140.651L1236.39 140.872L1239.05 138.655L1239.28 109.146L1240.16 93.3941L1245.93 106.042L1255.92 48.7883L1267.9 106.707L1270.34 92.0638L1276.56 110.708V124.908L1275.23 129.565L1275.45 190.144L1278.78 192.583L1278.34 199.245L1283.44 197.693L1292.32 199.688L1291.87 170.401L1296.31 181.054L1307.41 133.122L1316.73 177.063L1323.17 185.498L1322.95 201.916L1322.28 211.238L1318.96 224.329L1321.18 268.714L1332.05 278.258L1349.58 278.036L1350.91 261.84L1353.13 266.275L1357.79 240.757L1361.56 266.718L1366.66 274.71L1367.1 285.363L1364 290.462L1363.33 303.775L1369.77 320.636L1389.31 324.405L1411.06 313.531C1411.06 313.531 1421.05 331.057 1421.71 331.5C1422.38 331.944 1427.26 349.248 1427.26 349.248L1448.79 353.904L1464.77 347.918L1468.76 356.353L1511.94 373.436V462.97H-2500Z" fill="white" />

      <!-- make everything *below* the horizon white as well -->
      <rect x="-2500" y="461" width="4000" height="1000" fill="white"/>
    </mask>
  </defs>

<!-- one single semi-transparent rectangle, no double-stacking -->
  <rect x="-2500" y="-350" width="4000" height="1463" fill="black" mask="url(#ground-mask)"/>
</svg>
